<?xml version="1.0" encoding="UTF-8"?>
<svg id="Layer_1" xmlns="http://www.w3.org/2000/svg" version="1.1" viewBox="0 0 1896.6 494.7">
  <!-- Generator: Adobe Illustrator 29.1.0, SVG Export Plug-In . SVG Version: 2.1.0 Build 142)  -->
  <defs>
    <style>
      .st0 {
        fill: #000000;
      }

      .st1 {
        isolation: isolate;
      }
    </style>
  </defs>
  <path class="st0" d="M1755.6,487.1l-260-108.7v103.2h-55.6V103.4h55.6v103.2l260-108.7v68.4l-260,108.1v35.9l260,108.1v68.7h0ZM1486.6,364.8l260,108.7v-49.1l-260-108.1v-47.9l260-108.1v-48.8l-260,108.7v-107.8h-37.6v360.2h37.6v-107.8Z"/>
  <g class="st1">
    <g class="st1">
      <g class="st1">
        <path class="st0" d="M59.3,481.7H2.8V103.3h56.5v33.2c28.1-24.6,63.9-38.5,100-38.5,70.3,0,123,53.2,123.2,123.8-3.3,68.1-17.5,87-47.4,116.9-31.6,28.4-69.6,41.5-109,39.1-39.2-2.4-46.5-7.5-66.7-18.6v122.5h-.1ZM11.8,472.7h38.5v-131.2l7.2,5.5c17.9,13.6,43.5,21.8,68.5,21.8,37.2,0,74.8-16.2,103.1-44.5,28.2-28.2,44.4-65.5,44.4-102.4s-11.6-61.1-32.7-82.2-50-32.6-81.5-32.6-74,15.7-101.3,43l-7.7,7.7v-45.4H11.8v360.4h0ZM126.1,330.3c-23.1,0-42.5-7.9-55.9-22.7-12.6-14-19.3-33-19.3-55.1s12-54.5,33-75c20.8-20.3,48.3-31.9,75.5-31.9,45.3,0,75.7,31.3,75.7,77.8s-12.1,54.5-33.2,75c-20.9,20.3-48.5,31.9-75.8,31.9h0ZM159.3,154.5c-24.9,0-50.1,10.7-69.2,29.3-19.2,18.8-30.2,43.7-30.2,68.5s5.9,36.8,17,49.1c11.7,12.9,28.7,19.8,49.2,19.8s50.3-10.7,69.5-29.3c19.4-18.8,30.5-43.8,30.5-68.5s-6.1-36.7-17.2-48.9c-11.9-13.1-29-20-49.5-20h-.1Z"/>
      </g>
    </g>
  </g>
  <g class="st1">
    <g class="st1">
      <g class="st1">
        <path class="st0" d="M587.6,492l-220-131.9v121.6h-56.5V103.3h56.5v32.9c28.7-24.4,65-38.2,101-38.2s65.2,12.4,87.9,34.9c22.8,22.7,35.4,54,35.4,88.3s-11,64.8-31.9,92.1c-18.1,23.8-43.1,42.7-70.9,53.9l98.6,58.8v65.9h-.1ZM358.5,344.2l220,131.9v-44.9l-110.7-66,9.2-3.1c29.7-10.1,56.6-29.3,75.6-54.2,19.7-25.8,30.1-55.7,30.1-86.6s-11.6-60.9-32.7-81.9c-21-20.9-49.9-32.3-81.5-32.3s-74.4,15.5-102.4,42.5l-7.6,7.3v-44.6h-38.5v360.4h38.5v-128.5h0ZM435.8,329.7c-45.6,0-76.3-31.1-76.3-77.3s12.3-54.3,33.7-75.1c21.2-20.6,48.8-32.3,75.8-32.3,43.6,0,75.2,31.9,75.2,75.7s-11.9,54.8-32.7,75.8c-20.9,21.1-48.5,33.2-75.8,33.2h0ZM469.1,154c-24.7,0-50,10.9-69.6,29.8-19.7,19.1-31,44.1-31,68.6,0,41.5,26.4,68.3,67.3,68.3s99.5-47.7,99.5-100-27.8-66.7-66.2-66.7h0Z"/>
      </g>
    </g>
  </g>
  <g class="st1">
    <g class="st1">
      <g class="st1">
        <path class="st0" d="M950.6,481.7h-89.5l-16.9-50.6-81.2-236.6-98.1,287.2h-59.6l129.2-378.4h57.1l102.6,299.4V103.3h56.5v378.4h0ZM867.5,472.7h74V112.3h-38.5v344.4l-118-344.4h-44.2l-123,360.4h40.6l104.5-306,89.8,261.5,14.8,44.5h0Z"/>
      </g>
    </g>
  </g>
  <g class="st1">
    <g class="st1">
      <g class="st1">
        <path class="st0" d="M1100.2,487c-35.1,0-67-13.2-90.1-37.3-22.1-23-36.1-53.9-34.2-86.5s3.5-28.2,6.6-41l1.4-4.2,54,16.9-1.4,4.3c-2.3,6.8-3.5,15.1-3.5,23.9,0,32.9,23.6,67.8,67.3,67.8,68.7,0,99.5-60.6,99.5-120.6v-150.6h-172v-56.5h228.5v228.2c0,39.9-16.9,79.7-46.4,109.1-29.9,29.9-68.8,46.3-109.6,46.3v.2h0ZM989.7,329.3c-3.1,10.8-4.8,22.5-4.8,33.9,0,30.4,11.3,58.9,31.7,80.3,21.3,22.2,51,34.5,83.6,34.5s75-15.5,103.2-43.7c27.8-27.7,43.7-65.2,43.7-102.7V112.3h-210.5v38.5h172v159.6c0,34.5-9.4,66.3-26.5,89.4-19.5,26.3-47.8,40.2-81.9,40.2s-41.5-8.3-55.6-23.3c-13.3-14.2-20.7-33.2-20.7-53.5s.9-15.6,2.6-22.4l-36.9-11.6h.1ZM1226.3,81.2c-22.9,0-43-19.6-43-42s15.5-35.1,34.6-35.1,42.5,20.5,42.5,43-15,34.1-34.1,34.1ZM1217.9,13.1c-14.3,0-25.6,11.5-25.6,26.1s16.2,33,34,33,25.1-11,25.1-25.1-16-34-33.5-34Z"/>
      </g>
    </g>
  </g>
  <g class="st1">
    <g class="st1">
      <g class="st1">
        <path class="st0" d="M1418.7,481.7h-127.7V103.3h56.5v321.9h71.2v56.5ZM1299.9,472.7h109.7v-38.5h-71.2V112.3h-38.5v360.4Z"/>
      </g>
    </g>
  </g>
  <g class="st1">
    <g class="st1">
      <g class="st1">
        <path class="st0" d="M1755.2,486.5l-260-108.7v103.4h-46.6V103.9h46.6v103.4l260-108.7v59l-260,108.7v52.6l260,108.7v59h0ZM1487.1,365.5l260,108.7v-41.2l-260-108.7v-63.5l2.5-1.1,257.4-107.6v-41.2l-260,108.7v-107.6h-30.2v361h30.2v-107.6h0Z"/>
      </g>
    </g>
  </g>
  <g class="st1">
    <g class="st1">
      <g class="st1">
        <path class="st0" d="M1839.6,117.1c-28.5,0-51.6-23.2-51.6-51.6s23.2-51.8,51.6-51.8,51.8,23.2,51.8,51.8-23.2,51.6-51.8,51.6ZM1839.6,16.7c-26.8,0-48.6,21.9-48.6,48.8s21.8,48.6,48.6,48.6,48.8-21.8,48.8-48.6-21.9-48.8-48.8-48.8ZM1839.6,104.3c-21.4,0-38.8-17.4-38.8-38.8s17.4-39,38.8-39,39,17.5,39,39-17.5,38.8-39,38.8ZM1839.6,29.5c-19.8,0-35.8,16.1-35.8,36s16.1,35.8,35.8,35.8,36-16.1,36-35.8-16.1-36-36-36ZM1839.2,95.9c-16.7,0-30.3-13.9-30.3-31s13.6-32.1,30.3-31,18.6,5.7,24.5,12.8l.8,1.2-13.2,10-.9-1.3c-2.7-3.8-6.8-5.9-11.2-5.9-7.6,0-13.8,6.4-13.8,14.2s6.2,14.1,13.8,14.1,8.6-2.1,11.2-5.8l.9-1.2,13.3,9.9-.8,1.2c-5.6,8.1-14.7,12.9-24.5,12.9h-.1ZM1839.2,36.9c-14.8,0-27.3,12.8-27.3,28s12.5,28,27.3,28,16.1-3.9,21.2-10.4l-8.5-6.3c-3.2,3.7-7.7,5.8-12.7,5.8-9.3,0-16.8-7.7-16.8-17.1s7.5-17.2,16.8-17.2,9.4,2.2,12.7,6l8.5-6.4c-5-6.5-12.8-10.3-21.2-10.3h0Z"/>
      </g>
    </g>
  </g>
  <g class="st1">
    <g class="st1">
      <g class="st1">
        <path class="st0" d="M54.8,350.6v126.6H7.3V107.8h47.5v39c28.5-28.5,67-44.3,104.5-44.3,67.5,0,118.7,50.7,118.7,119.3s-71.6,159.7-152,151.4-43.9-17.9-71.2-22.7h0ZM159.3,150c-54.4,0-104,47.5-104,102.4s24.8,73.3,70.7,73.3,104.5-47.5,104.5-102.4-25.3-73.3-71.2-73.3h0Z"/>
      </g>
    </g>
  </g>
  <g class="st1">
    <g class="st1">
      <g class="st1">
        <path class="st0" d="M315.5,107.8h47.5v38.5c29-28,67.5-43.8,105.5-43.8,67.5,0,118.7,50.1,118.7,118.7s-46.4,124-108.7,145.1l104.5,62.3v55.4l-220-131.9v125.1h-47.5V107.8ZM539.8,220.7c0-42.2-30.6-71.2-70.7-71.2s-105,48.5-105,102.9,26.9,72.8,71.8,72.8,104-50.1,104-104.5h0Z"/>
      </g>
    </g>
  </g>
  <g class="st1">
    <g class="st1">
      <g class="st1">
        <path class="st0" d="M898.6,107.8h47.5v369.4h-81.8l-15.8-47.5-85.5-249.1-101.3,296.6h-50.1l126.1-369.4h50.7l110.3,321.9V107.8h-.1Z"/>
      </g>
    </g>
  </g>
  <g class="st1">
    <g class="st1">
      <g class="st1">
        <path class="st0" d="M1032.1,107.8h219.5v223.7c0,81.3-69.7,150.9-151.4,150.9s-124.2-56.1-119.8-119.3,2.1-26.9,6.3-39.6l45.4,14.2c-2.6,7.9-3.7,16.9-3.7,25.3,0,38,28,72.3,71.8,72.3,70.2,0,104-60.7,104-125.1v-155.1h-172v-47.5.2h-.1ZM1255.9,47.1c0,16.9-13.2,29.6-29.6,29.6s-38.5-17.4-38.5-37.5,13.2-30.6,30.1-30.6,38,18.5,38,38.5Z"/>
      </g>
    </g>
  </g>
  <g class="st1">
    <g class="st1">
      <g class="st1">
        <path class="st0" d="M1295.4,107.8h47.5v321.9h71.2v47.5h-118.7V107.8Z"/>
      </g>
    </g>
  </g>
  <path class="st0" d="M1751.1,163.3l-258.2,105.7.2,45.2,257.9,107.2,1.6,61.4-259.2-110.2-.6,105h-50.3l1.8-369.7h46.6l1.5,104,259.7-108.6-1.2,60h.2Z"/>
  <g class="st1">
    <g class="st1">
      <g class="st1">
        <path class="st0" d="M1839.6,15.2c27.9,0,50.3,22.6,50.3,50.3s-22.4,50.1-50.3,50.1-50.1-22.4-50.1-50.1,22.4-50.3,50.1-50.3ZM1839.6,102.8c20.8,0,37.5-16.7,37.5-37.3s-16.7-37.5-37.5-37.5-37.3,16.7-37.3,37.5,16.7,37.3,37.3,37.3ZM1839.2,49.2c-8.5,0-15.3,7.1-15.3,15.7s6.8,15.6,15.3,15.6,9.6-2.5,12.4-6.4l10.9,8.1c-5.3,7.7-14.1,12.3-23.3,12.3-15.7,0-28.8-13.4-28.8-29.5s13.1-29.5,28.8-29.5,18,4.5,23.3,12.1l-10.9,8.2c-2.8-3.9-7.2-6.5-12.4-6.5h0Z"/>
      </g>
    </g>
  </g>
  <g class="st1">
    <g class="st1">
      <g class="st1">
        <path class="st0" d="M54.8,350.6v126.6H7.3V107.8h47.5v39c28.5-28.5,67-44.3,104.5-44.3,67.5,0,118.7,50.7,118.7,119.3s-71.6,159.7-152,151.4-43.9-17.9-71.2-22.7h0ZM159.3,150c-54.4,0-104,47.5-104,102.4s24.8,73.3,70.7,73.3,104.5-47.5,104.5-102.4-25.3-73.3-71.2-73.3h0Z"/>
      </g>
    </g>
  </g>
</svg>
