<?xml version="1.0" encoding="UTF-8"?>
<svg id="Layer_1" data-name="Layer 1" xmlns="http://www.w3.org/2000/svg" version="1.1" viewBox="0 0 1500 1500">
  <defs>
    <style>
      .cls-1 {
        fill: #b0b0af;
      }

      .cls-1, .cls-2, .cls-3, .cls-4, .cls-5, .cls-6, .cls-7, .cls-8, .cls-9, .cls-10, .cls-11, .cls-12, .cls-13, .cls-14, .cls-15, .cls-16, .cls-17, .cls-18, .cls-19, .cls-20, .cls-21, .cls-22, .cls-23 {
        stroke-width: 0px;
      }

      .cls-2 {
        fill: #f5f5f5;
      }

      .cls-3 {
        fill: #fdafae;
      }

      .cls-4 {
        fill: #748a39;
      }

      .cls-5 {
        fill: #222;
      }

      .cls-6 {
        fill: #8b8b8b;
      }

      .cls-7 {
        fill: #9a0501;
      }

      .cls-8 {
        fill: #fde3e5;
      }

      .cls-9 {
        fill: #bebebe;
      }

      .cls-10 {
        fill: #000;
      }

      .cls-11 {
        fill: #fd908c;
      }

      .cls-12 {
        fill: #d1d1d1;
      }

      .cls-13 {
        fill: #7a0100;
      }

      .cls-14 {
        fill: #fd6263;
      }

      .cls-15 {
        fill: #3f3f3f;
      }

      .cls-16 {
        fill: #777;
      }

      .cls-17 {
        fill: #cd0101;
      }

      .cls-18 {
        fill: #131212;
      }

      .cls-19 {
        fill: #9a9b9b;
      }

      .cls-20 {
        fill: #5c5c5b;
      }

      .cls-21 {
        fill: #7e7e7e;
      }

      .cls-22 {
        fill: #434343;
      }

      .cls-23 {
        fill: #b50801;
      }
    </style>
  </defs>
  <g id="Layer_2" data-name="Layer 2">
    <rect class="cls-2" width="1500" height="1500"/>
  </g>
  <g id="Layer_1-2" data-name="Layer 1">
    <g>
      <path class="cls-10" d="M1037.2,798.4v-96.5c.3,0,.5,0,.7,0h47c4.7,0,9.3.8,13.7,2.4,3.3,1.3,6.3,3,8.7,5.6,2.6,2.7,4.2,6,5,9.6.7,3.1.8,6.2.5,9.4-.5,4.1-1.8,7.8-4.5,11-2.1,2.4-4.6,4.5-7.6,5.9l-1.6.8v.2c.4.1.7.2,1.1.3,3.2.8,6.2,2.1,8.8,4.2,2.8,2.3,4.8,5.2,6.1,8.6,1.1,2.6,1.7,5.3,1.9,8.1.2,1.9.3,3.9.1,5.8-.5,6-2.4,11.4-6.8,15.7-1.4,1.4-2.9,2.5-4.6,3.5-4.6,2.7-9.5,4.2-14.8,5-3,.5-6.1.7-9.2.7h-44.7c0-.1,0-.1,0-.1ZM1095,734.4c0-.2.2-.3.3-.5.2-.9.4-1.9.5-2.7,0-.3.1-.5.1-.8,0-1.8,0-3.5-.3-5.3-.7-4-2.9-6.8-6.8-8.2-2.1-.7-4.4-1.1-6.6-1.1-1.9,0-3.9,0-5.9,0s-.6,0-.9,0-.4,0-.6,0c-2.4-.2-4.8-.2-7.1,0-.1,0-.3,0-.5,0-.2,0-.4,0-.6,0h-11.9c-.2,0-.3,0-.5,0v26.5h1.1c.1,0,.3,0,.5,0h12.2c.2,0,.4,0,.5,0s.3,0,.5,0h13.5c.6,0,1.3-.1,1.9-.2,1.1-.1,2.2-.3,3.2-.8.6-.3,1.3-.5,1.9-.8,2.3-1.1,4-2.8,5.2-5,.3-.3.4-.7.5-1.1h0ZM1070.2,754.4c-.2,0-.4,0-.5,0h-15.5v3.6c0,.3-.1.5-.1.9v25.5c0,0,0,.1.1.1.1,0,.3,0,.5,0h16.7c.2,0,.4,0,.6,0,.1,0,.2,0,.3,0,4.3,0,8.6,0,12.9,0,2.4,0,4.8-.4,6.9-1.4,3.6-1.6,6.1-4.2,7.3-8,.9-3.2,1.1-6.4.5-9.5-.6-3.2-2-6-4.8-7.9-.9-.6-1.7-1.1-2.6-1.6-1-.5-2-.9-3.2-1,0,0-.2-.1-.3-.1-2.8-.5-5.8-.5-8.6-.5-1.3,0-2.6,0-3.9,0-2,0-4.1,0-6.2,0h-.1Z"/>
      <path class="cls-10" d="M657.6,749.1c0,7.4-1.1,14.6-3.6,21.6-1.9,5.2-4.5,9.9-8,14.2-2.7,3.3-5.9,6.1-9.4,8.5-5.2,3.5-11,5.6-17.2,6.7-4.4.7-8.9.8-13.4.4-6.2-.6-12-2.4-17.5-5.4-4.4-2.4-8.1-5.5-11.4-9.3-4.2-4.9-7.3-10.5-9.3-16.7-1.1-3.6-2-7.3-2.5-11.1-.6-4.5-.7-9-.3-13.5.3-4,1.1-7.9,2.3-11.7,1.3-4,2.8-8,5.1-11.6,2.7-4.4,5.9-8.3,9.9-11.6,3.9-3.2,8.2-5.7,13-7.3,3.5-1.2,7.1-2,10.9-2.4,3.6-.3,7.3-.3,10.9,0,4,.5,8,1.5,11.8,3,4.5,1.9,8.6,4.4,12.2,7.5,3.5,3,6.4,6.7,8.8,10.6,2.2,3.6,3.8,7.5,5,11.4,1.1,3.6,1.9,7.3,2.3,11,.2,2,.3,3.8.5,5.6h0ZM637.1,768.9c.9-2.3,1.7-4.6,2.1-6.9,0-.2,0-.5.1-.7,0,0,0-.1,0-.2.6-3.2,1.1-6.5,1.1-9.7,0-3.2-.1-6.4-.6-9.5h0c0-.1,0-.1,0-.2-.3-1.4-.5-2.7-.8-4.1-.7-2.9-1.8-5.7-3-8.5,0-.1-.2-.3-.3-.5-.7-1.6-1.6-3.1-2.7-4.5-2.8-3.9-6.5-6.7-11-8.7-2-.9-4.1-1.4-6.2-1.6,0,0-.2,0-.3,0-2.5-.3-5-.4-7.5-.1-.2,0-.4,0-.5,0-1.7.3-3.4.6-5.1,1.1-5.8,1.8-10.5,5.2-13.9,10.3-3.9,5.8-5.7,12.2-6.5,19.1v.2c0,.3,0,.6-.1.9-.5,6.1,0,12.2,1.4,18.1,1.3,4.8,3.2,9.4,6.3,13.4,2.2,2.8,4.7,5,7.8,6.7l.8.4c3.2,1.6,6.5,2.4,10,2.7,3.8.3,7.5,0,11.2-.9,5.4-1.5,9.7-4.5,13.2-8.9,1.7-2.1,2.9-4.4,4.1-6.8.2-.3.4-.7.5-1.1h0Z"/>
      <path class="cls-10" d="M549.5,798.4c-.1,0-.3,0-.5,0h-15.6c-.2,0-.4,0-.7,0v-3.4c0-.3.1-.5.1-.7v-16.3c0-.3,0-.6,0-.9v-21.6c0-.2,0-.5,0-.7-.2,0-.4-.1-.6-.1h-25.1c-.2,0-.4,0-.5,0h-4c0,0,0,0-.1,0h-.7c-.1,0-.3,0-.4,0-1.3,0-2.6,0-4,0h-.3c-.6,0-1.2,0-1.9.1-.3,0-.5-.1-.7-.1h-5.2c-.2,0-.3,0-.5,0,0,.1,0,.2,0,.3,0,1.4,0,2.8,0,4.2s0,.2.1.3v3.8c0,1.3,0,2.7,0,4s0,.3,0,.5c0,1.7,0,3.3,0,5,0,.7,0,1.4,0,2v22.9c0,.1,0,.3,0,.5,0,.3-.3.3-.5.3h-16.5v-96.6c.1,0,.3,0,.4,0h15.9c.2,0,.4,0,.5,0v20.4c0,.3,0,.6,0,.9,0,.4,0,.7,0,1.1v15.5c0,0,0,.1,0,.3h1.3c2,0,4.1,0,6.1,0h3.1c.3,0,.5,0,.7,0h23.4c.3,0,.6,0,.9,0s.3,0,.4,0h7.7c.1,0,.3,0,.5-.1,0-.2,0-.4,0-.6v-30c0-.3,0-.6,0-.9v-6.7h16.9v96.4c-.2,0-.3.1-.3.2h0Z"/>
      <path class="cls-10" d="M995.4,773.1c-.3,0-.6,0-.9,0h-28.7c-.3,0-.7,0-1,0-.5,0-.9,0-1.4,0h-1.4c-.9,2.6-1.9,5.1-2.7,7.6-1.5,4-2.8,8-4.3,12-.7,1.9-1.4,3.8-2,5.7-.2,0-.4,0-.5,0h-16.9c12.4-32.2,24.7-64.4,37.1-96.5h18.1c12.4,32.1,24.8,64.3,37.2,96.5h-18.1c-.6-1.6-1.1-3.2-1.7-4.8-.1-.3-.3-.7-.4-.9-.1-.3-.2-.7-.3-1.1-1.5-4.3-3.1-8.6-4.6-13-.2-.5-.5-1.1-.7-1.6-.4-1.2-.8-2.4-1.2-3.6,0-.1-.1-.3-.2-.5-.9,0-1.7,0-2.6.1-1,0-1.9,0-2.7,0h0ZM971.6,746.1c0,0,0,.1,0,.2-1.6,4.6-3.2,9.1-4.8,13.8h7.3c.2,0,.3,0,.5,0h12.8c.2,0,.4,0,.7,0,.1,0,.3,0,.4,0h7.4c.1,0,.3,0,.5,0-.1-.4-.3-.7-.4-1.1-.8-2.3-1.6-4.5-2.4-6.7-.5-1.4-.9-2.8-1.4-4.2,0-.1-.1-.2-.2-.3,0-.3-.1-.5-.2-.7-.9-2.4-1.7-4.8-2.5-7.1-.3-.8-.6-1.7-.9-2.4,0-.2,0-.5-.1-.7-.5-1.4-1-2.8-1.5-4.2-.3-.8-.6-1.6-.9-2.4-.3-.9-.7-1.9-.9-2.8-.9-2.6-1.8-5.3-2.7-7.9-.1-.3-.3-.6-.5-1-.1.2-.2.3-.3.4-3.4,9.1-6.7,18.1-9.9,27.3h0Z"/>
      <path class="cls-10" d="M702.6,784.3c.9.3,1.7.8,2.5,1.1,2.5.9,5.2,1.2,7.8,1.3,2.8,0,5.6,0,8.3-.8,6.8-1.9,11.7-6.2,14.7-12.6,1.6-3.4,2.6-7.1,3-10.8,0-.2,0-.5.1-.7.3,0,.5,0,.7,0h5.4c.3,0,.6,0,.9,0s.3,0,.4,0h6.5c.2,0,.3,0,.5,0,.7,0,1.4,0,2.1.1,0,.8,0,1.7-.2,2.4-.5,4.3-1.5,8.5-3.2,12.5-1.1,2.5-2.4,4.9-4,7.2-1.9,2.8-4.2,5.4-6.7,7.5-3,2.5-6.4,4.5-10.1,6-3.2,1.4-6.6,2.2-10.1,2.7-4,.6-8.1.7-12.2.3-6-.5-11.6-2.3-16.9-5.1-4.6-2.4-8.5-5.6-11.9-9.6-4.2-4.9-7.3-10.5-9.3-16.7-1.1-3.6-2-7.3-2.5-11.1-.6-5-.7-9.9,0-14.9.5-4,1.3-7.9,2.6-11.6,1.7-5.2,4.1-9.9,7.3-14.3,5-6.7,11.4-11.6,19.3-14.6,3.2-1.3,6.5-2,10-2.5,3.6-.5,7.3-.6,11-.3,6.9.5,13.5,2.3,19.5,5.8,6.4,3.7,11.2,8.9,14.4,15.6,1.3,2.7,2,5.6,2.6,8.5.1.8.3,1.6.4,2.4v.3c0,.1,0,.3,0,.4-.3,0-.7,0-.9,0h-15.3c-.2,0-.4,0-.6,0-.3-1.1-.7-2.1-1.1-3.1-.9-2.3-1.9-4.6-3.2-6.5-3.1-4.4-7.3-7.3-12.6-8.6-.7-.2-1.4-.3-2.1-.4-.5,0-1.1-.2-1.7-.3-4.6-.5-9.2-.3-13.6,1.4-5,1.9-9.1,5-12.2,9.4-2.8,4-4.6,8.4-5.8,13.1s-1.6,9.5-1.4,14.3c.1,4.8.9,9.5,2.4,14.2,0,.2.2.5.3.7,0,.1,0,.3,0,.5.9,1.9,1.7,3.7,2.5,5.5,1.2,2.3,2.8,4.4,4.6,6.3s4.1,3.5,6.5,4.8c.3.4.7.5,1.1.7h0Z"/>
      <path class="cls-10" d="M799,783.7c.5.3.9.5,1.4.7,3.2,1.5,6.6,2.1,10.1,2.2,2.8,0,5.6,0,8.3-.8,6.8-1.9,11.6-6.1,14.7-12.4,1.3-2.6,2.2-5.4,2.7-8.3.1-.9.3-1.9.5-2.7,0-.2,0-.5.1-.7h16.5c0,.9,0,1.7-.2,2.4-.5,4.3-1.5,8.5-3.2,12.5-1.1,2.6-2.4,5-4,7.3-2,3-4.4,5.6-7.1,7.8-2.9,2.4-6.1,4.2-9.7,5.7-3.5,1.5-7.1,2.3-10.8,2.8-3.8.5-7.7.5-11.6.1-3.5-.3-6.9-1.1-10.2-2.3-6-2.1-11.4-5.2-15.9-9.7-4.9-4.8-8.5-10.5-11-16.8-1.6-4.2-2.7-8.5-3.3-13-.5-3.6-.7-7.1-.5-10.7.3-6.2,1.4-12.3,3.5-18.3,1.9-5.1,4.5-9.8,7.9-14,2.3-2.9,5-5.4,7.9-7.5,3-2.1,6.1-4,9.5-5.3,3.4-1.4,7-2.3,10.7-2.8,3.6-.5,7.3-.6,11-.3,6.8.5,13.4,2.3,19.4,5.7,6,3.4,10.6,8.2,13.8,14.4,1.6,3.1,2.6,6.4,3.2,9.8,0,.5.2,1.1.3,1.5,0,.5,0,.9,0,1.3-.3,0-.7.1-1,.1h-15.2c-.2,0-.4,0-.6,0,0-.1,0-.2-.1-.3-.7-2.3-1.5-4.6-2.6-6.7-2.3-4.5-5.8-7.9-10.5-9.9-2.3-1.1-4.8-1.5-7.3-1.9-.2,0-.3,0-.5,0-1,0-2-.2-3.1-.2-2.4,0-4.8.1-7.2.7-5.8,1.5-10.6,4.5-14.3,9.3-3.7,4.8-5.8,10.3-6.9,16.3-.7,3.8-1.1,7.8-.9,11.7.1,5.4.9,10.7,2.8,15.8,0,.2.1.3.2.5,0,.1,0,.3.1.5.7,1.5,1.3,2.8,2,4.3,2.4,4.7,6.1,8.3,10.6,11,0,.1.2.1.4.2h0Z"/>
      <path class="cls-10" d="M430.2,798.5c-5.4,0-10.8,0-16.2-.1-.3,0-.5-.1-.7-.2,0-.3,0-.7,0-1v-33.6c0-.5,0-1.1,0-1.6,0-1.1,0-2.3,0-3.4,0-.3,0-.6,0-.9v-16.5c0-.4,0-.8,0-1.2s0-.3,0-.5v-22.9c0,0,0-.1,0-.3h-30.5v-14.6h78.3v14.4c0,0,0,.1-.1.1h-30.6v.9c0,.1,0,.3,0,.5v41.5c0,.1,0,.3,0,.4v9.7c0,.2,0,.3,0,.5,0,.5,0,1.1,0,1.7v25.9c0,.5,0,.9,0,1.2h0Z"/>
      <path class="cls-10" d="M886,747.3v13.7c0,.2,0,.4,0,.5,0,.8,0,1.6-.1,2.4,0,.2,0,.5.1.7,0,.4,0,.8,0,1.2h0c0,.3,0,.3,0,.5v7.8c0,.2,0,.4.1.6v9.1c.1,0,.3,0,.4,0h9.8c.2,0,.3,0,.5,0,.3,0,.7,0,.9,0h24.2c.3,0,.5,0,.8,0,.3,0,.6,0,.9,0h11.5c.2.7.3,12,0,14.5h-66.1v-96.3h16.9c0,.2,0,.5,0,.7v17.7c0,.3,0,.7,0,1h0c0,0-.1.2-.1.3s0,.1,0,.1v24.8c-.1.3,0,.6,0,.9h0Z"/>
      <path class="cls-4" d="M413.3,762c0,.5,0,1.1,0,1.6v33.6c0,.3,0,.7,0,1-3-.5-6-1.4-8.7-2.7-3.8-1.7-7-4.1-9.5-7.5-2.4-3.3-3.5-7.1-3.2-11.2.1-2,.5-3.9,1.3-5.8,1.7-3.9,4.6-6.4,8.6-7.7,1.9-.6,3.8-.9,5.8-1,1.9,0,3.8-.3,5.8-.4h0Z"/>
      <path class="cls-4" d="M815.2,713.7c.2,0,.4,0,.5,0,2.4.4,5,.9,7.3,1.9,4.6,2.1,8.1,5.4,10.5,9.9,1.1,2.2,2,4.4,2.6,6.7,0,.1,0,.2.1.3.2,0,.4,0,.6,0h15.2c.3,0,.7-.1,1-.1h.3c-.2,1.8-.5,3.6-1.1,5.2-.7,2.2-1.8,4.1-3.4,5.8-2.2,2.2-4.8,3.6-7.9,3.8-1.5,0-3-.3-4.4-.9-2.5-1.1-4.4-2.9-6-5.1-1.3-1.7-2.2-3.6-3-5.6-1.1-2.8-2.1-5.7-3.2-8.5-1.8-4.8-4.3-8.9-8-12.4-.5-.3-.9-.7-1.3-1h0Z"/>
      <path class="cls-4" d="M886,721.2h0c.5-1.5,1.1-3,1.6-4.6.6-1.9.9-3.9.7-6,0-.8-.3-1.6-.3-2.4,0-.6-.1-1.1-.1-1.7,0-1.5,1.1-2.5,2.6-2.6.8,0,1.6,0,2.3.2,3.3.9,5.8,2.8,7.5,5.9,1,1.7,1.1,3.6,1,5.6-.6,8.3-3.7,15.8-8.5,22.7-2,3-4.3,5.9-6.5,8.8,0,.1-.2.2-.3.3,0-.3-.1-.5-.1-.8v-24.8c0,0,0,0,0-.1,0-.1,0-.3,0-.3h0Z"/>
      <path class="cls-4" d="M719.5,714.1c.7.1,1.4.2,2.1.4,5.2,1.3,9.5,4.2,12.6,8.6,1.5,2,2.4,4.2,3.2,6.5.3,1,.7,2,1.1,3.1.2,0,.4,0,.6,0h15.3c.3,0,.7,0,.9,0h.1c.1,1-.3,1.9-.5,2.8-.7,2.6-1.8,4.9-3.7,6.7-2.2,2.2-4.8,3.5-7.9,3.8-1.1,0-2.1-.2-3.1-.5-2.7-.9-4.8-2.6-6.6-4.8-1.7-2.1-2.9-4.5-3.8-7.1-1-2.6-1.9-5.2-2.9-7.9-1.4-3.8-3.4-7.3-6-10.3-.4-.5-.9-1-1.4-1.5h0Z"/>
      <path class="cls-4" d="M952.9,798.3c.7-1.9,1.3-3.8,2-5.7,1.5-4,2.8-8,4.3-12,.9-2.5,1.8-5,2.7-7.6.5,0,.9,0,1.4,0,.5,0,.9,0,1.4,0-.2,1.9,0,3.7.3,5.5.5,2.1,1.7,3.3,3.8,3.6.7.1,1.5.2,2.3.3.5,0,.9.2,1.4.3.9.3,1.5.9,1.8,1.7.5,1.3.6,2.7,0,4-.5,1.1-1.3,2-2,2.9,0,0,0,.1-.1.3h.1c1.1-.1,2.1-.3,3.2-.3,1.9,0,3.6.6,5.1,1.9.3.3.6.6.9.9,1.1,1.5.5,3.3-1.2,4-.5.2-1.1.3-1.7.3h-23c-.9,0-1.8,0-2.7-.1h0Z"/>
      <path class="cls-4" d="M488.8,798.1c0-.1,0-.3,0-.5v-22.9c0-.7,0-1.4,0-2,.1,0,.2-.1.3-.2,3.7-3.2,7.4-6.5,11-9.9.7-.7,1.4-1.5,2-2.3.7-1,1.2-2.1,1.3-3.4,0-.8-.1-1.5-.9-2,0,0,0-.1,0-.2h4c.7,2.2.2,4.3-.5,6.4-.8,2.2-1.9,4.2-3.3,6s-2.8,3.6-4.4,5.2c-.1.1-.3.3-.4.4,0,0,.1.1.2.1,2.5,1,3.8,2.9,4.6,5.4.7,2.5.4,4.9-.6,7.3-1.3,2.8-3.2,5.2-5.4,7.2-2.2,2-4.6,3.7-7.3,5-.2.1-.3.2-.5.3h0Z"/>
      <path class="cls-4" d="M886,774.7c0-.2-.1-.4-.1-.6v-7.8c0-.1,0-.2,0-.3h.1c2.3-2.8,4.4-5.6,6.4-8.5.1-.1.2-.3.3-.4h-.1c0,0-.1,0-.2.1-2,2.4-4,4.7-5.9,7.1-.1.1-.3.3-.5.5,0-.2-.1-.5-.1-.7,0-.8,0-1.6.1-2.4.9-1.1,1.8-2.2,2.6-3.3,2.5-3.4,5-6.7,7.6-10.1,1.9-2.4,4.2-4.7,6.8-6.5,1.5-1.1,3.2-1.9,5-2.4,1.1-.3,2.2-.5,3.4-.3,2,.5,3,2,2.5,4-.3,1.3-1,2.3-1.9,3.2-2.6,2.6-5.2,5-7.9,7.6-2.8,2.8-5.6,5.5-8.4,8.3-2.3,2.4-4.5,4.9-6.5,7.6-1.1,1.5-2,3-3,4.6-.1,0-.2.1-.3.3h0ZM892.7,756.7h0Z"/>
      <path class="cls-4" d="M430.2,798.5c0-.3,0-.6,0-.9v-22.6c0,0,0-.1.1-.1.6-.4,1.2-.8,1.8-1.2,1.5-1,3.1-1.6,5-1.4,1.8.2,3.3,1,4.6,2.2,2.2,2,3.4,4.6,3.9,7.5.7,4-.4,7.5-3.2,10.5-2.6,2.7-5.8,4.5-9.4,5.5-1,.2-1.9.3-2.8.6h0Z"/>
      <path class="cls-4" d="M499.3,740.1h-3.1c.3-2.3.1-4.6-.5-6.7-.4-1.3-.9-2.6-1.4-4-.9-2.1-2.2-4-3.8-5.7-.5-.5-1.1-.8-1.8-.5,0-.3,0-.6,0-.9v-20.4c3.8.1,7.3,1.3,10.1,3.9,2,1.9,3.1,4.1,3.4,6.8.1,1.3-.2,2.6-.5,4-.5,1.9-1.5,3.5-2.6,5.1-.4.6-.8,1.3-1.2,1.9-1.2,2-1.7,4.1-1.2,6.3.6,2.9,1.3,5.8,2,8.7.1.5.4,1,.6,1.6h0Z"/>
      <path class="cls-4" d="M995.4,773.1c.9,0,1.7,0,2.5,0-.2.7-.5,1.4-.7,2.1-.3,1.1.3,1.9,1.5,2,.3,0,.7,0,1,0,.7,0,1.5-.1,2.2-.2.2.5.5,1.1.7,1.6,1.5,4.3,3.1,8.6,4.6,12.9.1.3.2.7.3,1.1-.8.7-1.6,1.6-2.4,2.3-2.1,1.7-4.5,2.8-7.1,3.6-1,.3-1.9.3-2.9.1-1.3-.3-2.1-1-2.6-2.2-.4-1.1-.5-2.1-.6-3.2-.1-2.4,0-4.8.4-7.1.5-4,1.5-7.9,2.6-11.7.3-.5.4-.9.5-1.3h0Z"/>
      <path class="cls-4" d="M430.3,770c0-.2,0-.3,0-.5v-9.7c0-.1,0-.3,0-.4,1.9-.5,3.8-.8,5.7-1.3,1.4-.4,2.8-.8,4.1-1.4.8-.3,1.5-.9,2.2-1.4.7-.5.6-1.2,0-1.7-.3-.2-.7-.4-1.1-.5-.7-.1-1.4-.2-2.1-.2-2.9,0-5.8.6-8.7,1.3,0,0,0,0-.1,0v-4.4c2.6,0,5.1-.4,7.6-.9,2-.4,4.1-.8,6.1-1.1,1.9-.3,3.7,0,5.4,1.1,1.3.8,2,1.9,2.3,3.4.2,1.1-.1,2.2-.7,3.2-.7,1.3-1.7,2.2-2.8,3-1.1.8-2.4,1.5-3.5,2.3-3.4,2.2-6.9,4.4-10.3,6.5-1.4,1.1-2.7,2-4,2.9h0Z"/>
      <path class="cls-4" d="M922.6,783.8c-.3,0-.5,0-.8,0h-24.2c-.3,0-.7,0-.9,0,.3-.2.6-.4.9-.7,3-2.1,6-4.2,8.9-6.3,2.8-1.9,5.6-3.9,8.6-5.4,1.6-.8,3.2-1.5,5-1.7.5,0,1.2,0,1.7.1.8.2,1.4.7,1.7,1.6.3.8.4,1.6.3,2.4-.2,1.9-.5,3.6-.8,5.5-.2,1.5-.3,2.9-.3,4.4h0Z"/>
      <path class="cls-4" d="M430.2,739.7v-21.8c0-.1,0-.3,0-.5,4.4.5,7.9,2.7,10.5,6.2,1.5,2,1.9,4.2,1.6,6.6,0,.6-.2,1.2-.3,1.8-.5,1.8-1.4,3.2-2.9,4.2-.9.6-1.8,1.2-2.7,1.6-2,.8-4,1.5-6,2.1,0,0-.1-.1-.2-.2h0Z"/>
      <path class="cls-4" d="M532.7,708.6c0,.3,0,.6,0,.9v30c0,.2,0,.4,0,.6-.1,0-.3.1-.5.1h-7.7c-.1,0-.3,0-.4,0,.7-.7,1.4-1.3,2-2,1.1-1.4,1.7-3.1,1.7-4.9s0-1.2-.1-1.8c0,0,0,0,0,0s0,0,0-.1c-.1-1.8-.7-3.5-1.1-5.2-.5-2-1-4-1.4-6.1-.5-2.6.1-5.2,1.9-7.3,1.6-1.8,3.4-3.2,5.6-4.1h0Z"/>
      <path class="cls-4" d="M413.3,740.1c0,.4,0,.8,0,1.2v16.5c0,.3,0,.6,0,.9-1.9.4-3.9.8-5.8,1.2-1.1.2-2.3.3-3.4-.2-1.9-.7-2.7-2.1-2.5-4.1s1.1-3.8,2.1-5.4c1.9-3,4.2-5.6,6.9-7.9.9-.7,1.8-1.5,2.7-2.2h0Z"/>
      <path class="cls-4" d="M532.7,777c0,.3,0,.6,0,.9v16.3c0,.3,0,.5-.1.7-2.3-.8-4.5-1.9-6.3-3.6-1.9-1.7-3.4-3.7-4.1-6.1-.3-1.2-.5-2.4-.3-3.6.4-2.1,1.6-3.5,3.6-4.2,1.7-.6,3.3-.6,5-.5.8,0,1.5,0,2.2.1h0Z"/>
      <path class="cls-4" d="M702.6,784.3c-.4-.2-.8-.3-1.2-.5-2.4-1.3-4.6-2.9-6.5-4.8-1.9-1.9-3.4-4-4.6-6.3-.9-1.8-1.7-3.7-2.5-5.5,0-.1,0-.3,0-.5,1.6-.1,3.2-.4,4.8-.5,2.3,0,3.9.9,4.8,3,.5,1.3.9,2.6,1.3,3.9.9,3.1,1.8,6.1,3.2,9.1.3.7.7,1.4,1,2h0Z"/>
      <path class="cls-4" d="M799,783.7c-.1,0-.3,0-.5-.1-4.6-2.6-8.2-6.3-10.6-11-.7-1.4-1.4-2.8-2-4.3,0-.1,0-.3-.1-.5,1.3-.1,2.6-.3,4-.3.5,0,1.1,0,1.6.1,1.2.3,2.1.9,2.7,1.9.5.9.9,1.8,1.2,2.6.9,2.8,1.8,5.8,2.7,8.7.2,1,.7,1.9,1.1,2.8h0Z"/>
      <path class="cls-7" d="M853.2,732.6h-.1c0-.5,0-.9,0-1.3,0,0,0,.1.1.2,0,.4,0,.7,0,1.1h0Z"/>
      <path class="cls-14" d="M853.2,732.6v-1.1c.3.3.2.7.1,1.1h-.1Z"/>
      <path class="cls-20" d="M532.7,754.8c0,.2,0,.5,0,.7,0-.2,0-.4,0-.7Z"/>
      <path class="cls-14" d="M755.5,732.7h-.1c0-.1,0-.3,0-.4h0c0,0,0,.2.1.4h0Z"/>
      <path class="cls-1" d="M430.4,774.9c0,0,0,.1-.1.1v-.3c0,0,0,.1.1.2Z"/>
      <path class="cls-7" d="M755.4,732.3s0,0,0,0c0,0,0-.1,0-.3,0,0,0,.2,0,.3h0Z"/>
      <path class="cls-14" d="M972.4,791.8h-.1c0,0,0-.1.1-.3v.3h0Z"/>
      <path class="cls-3" d="M527.8,731.3c0,0,0,0,0,.1h0c0,0,0,0,0-.1t0,0h0Z"/>
      <path class="cls-5" d="M460.8,716.4c0,0,0-.1.1-.1,0,0,0,0-.1.1Z"/>
      <path class="cls-17" d="M430.2,739.7c0,0,.1.1.1.2,0,0,0,0-.1,0,0,0,0-.2,0-.3h0Z"/>
      <path class="cls-18" d="M549.5,798.4s0,0,.1-.1c0,0,0,0-.1.1Z"/>
      <path class="cls-4" d="M1054.1,784.2v-25.5c0-.3,0-.5.1-.9.9,1.3,2,2,3.5,2.3,1.3.2,2.4.1,3.7-.2,3.4-.9,6.2-2.8,8.6-5.2,0,0,.1-.2.2-.3,0,0,.1,0,.1-.1,2,0,4.1,0,6.2,0-.3.8-.7,1.7-1,2.5-.7,1.7-1.5,3.4-2.3,5.2-.2.5-.5.9-.3,1.5.6.4.8.5,1.3,0,.2-.1.4-.3.6-.5,1.9-1.9,3.4-4.1,4.6-6.5.4-.7.7-1.5,1.1-2.2,2.9,0,5.8,0,8.6.5.1,0,.2,0,.3.1-1.3,2.6-2.3,5.3-3.2,8-1.3,3.8-3,7.5-5.2,10.9-1.2,1.9-2.4,3.8-4,5.4-1.4,1.3-2.7,2.6-4.1,4-.3.3-.7.7-1,1.1-.2,0-.4,0-.6,0h-16.7c-.1,0-.3,0-.5,0,0,0,0-.1-.1-.2h0Z"/>
      <path class="cls-4" d="M1068.5,742.3c.8-.6,1.5-1.3,2.3-1.9,1.6-1.1,3.2-2,4.8-3,1.7-1.1,3.4-2.1,5.1-3.2,1.7-1.1,3-2.5,4-4.3,1.7-3.4,1.2-6.8-1.2-9.7-1.1-1.3-2.5-2.2-4.1-2.8-1.3-.5-2.6-.9-4-1.3v-.2c.3,0,.6,0,.9,0,2,0,3.9,0,5.9,0,2.3,0,4.5.3,6.6,1.1,3.9,1.4,6.1,4.2,6.8,8.2.3,1.8.3,3.5.3,5.3,0,.3,0,.5-.1.8-.2.1-.5.3-.6.5-.5.5-1,.9-1.5,1.4-2.1,2-4.3,4-6.4,6-1.1,1-2,2.1-3,3.2-.6,0-1.3.2-1.9.2h-13.5c-.3,0-.4-.1-.6-.1h0Z"/>
      <path class="cls-4" d="M1067,716c-2.4.5-4.6,1.5-6.5,3.2-1.1,1.1-2,2.4-2.4,3.9-.3.9-.3,1.7.1,2.4s.9,1.6,1.3,2.4c.4.7.7,1.4.6,2.2,0,1.3-.3,2.4-.8,3.6-.5,1.1-1.1,2.1-1.6,3.2-.9,1.8-1.7,3.5-2.5,5.3h-1.1v-26.5c.2,0,.4,0,.5,0h11.9c.2,0,.4,0,.6,0h0c0,.1,0,.2-.1.2h0Z"/>
      <path class="cls-4" d="M1087.5,741.4c.9-1.4,2-2.6,3.2-3.7,1.1-1,2.4-1.9,3.5-2.9.2-.1.5-.3.7-.4-.1.4-.3.8-.5,1.2-1.1,2.3-2.9,3.9-5.2,5-.5.3-1.2.5-1.8.8h0Z"/>
      <path class="cls-23" d="M1075.4,715.8v.2c-.2,0-.4,0-.6-.1.2,0,.4,0,.6,0h0Z"/>
      <path class="cls-15" d="M1067.2,715.9h0c.1,0,.3,0,.5,0h-.5Z"/>
      <path class="cls-7" d="M1054.1,784.2c0,0,0,.1.1.1,0,0,0,0-.1-.1Z"/>
      <path class="cls-9" d="M1070.2,754.5s0,0,0-.1h.1c0,0,0,.1-.1.1h0Z"/>
      <path class="cls-4" d="M636.7,770c-1.2,2.4-2.4,4.8-4.1,6.8-3.4,4.4-7.8,7.3-13.2,8.9-3.6,1-7.3,1.3-11.2.9-3.5-.3-6.9-1.1-10-2.7l-.8-.4v-.5c-.2-.7-.4-1.5-.6-2.2-.9-3.6-.9-7.3,0-11,.6-2.8,1.6-5.6,2.8-8.3,1.6-3.5,3.6-6.9,5.6-10.2,2-3.4,4-6.8,5.7-10.4,1.1-2.3,2-4.6,2.6-7.1.3-1.2.3-2.4-.2-3.6-.5-1.3-2.1-1.9-3.2-1.7-.8.2-1.6.5-2.3.9-1.1.8-2.3,1.7-3,2.8-.6.8-1.3,1.6-1.8,2.4-1.5,2-2.9,4.2-4.4,6.2-1.3,1.7-2.7,3.2-4.4,4.4-2,1.4-4.3,2-6.7,1.7-2-.3-3.8-1.2-5.3-2.6h-.1c.8-6.9,2.6-13.4,6.5-19.3,3.4-5,8-8.5,13.9-10.3,1.7-.5,3.4-.7,5.1-1.1h.5c0,.5-.1.9-.2,1.3-.3,1.8-1.1,3.4-2.5,4.5-.7.5-1.3,1-2,1.5-1.9,1.1-3.9,1.8-5.9,2.5s-4,1.4-5.8,2.4c-1.1.7-2.1,1.3-2.9,2.3-1.4,1.7-1.1,3.5.6,4.8.7.5,1.5.9,2.3,1.1,2.4.7,4.6.3,6.9-.7,3.4-1.4,6.1-3.6,8.5-6.4,2.3-2.7,4.2-5.7,6-8.7.9-1.5,1.8-3,2.6-4.5,2.2.3,4.2.8,6.2,1.6,4.4,1.9,8.1,4.8,11,8.7-.7.7-1.3,1.4-1.9,2-2.3,2.2-4.6,4.4-6.9,6.5-3.4,3.1-6.9,6.1-10.1,9.5-1.5,1.6-2.8,3.2-4.2,4.9-3.7,4.9-5.9,10.5-6.9,16.5-.3,1.8-.5,3.6-.7,5.4-.3,3-.5,6-.1,8.9.1,1.5.4,2.8,1.1,4.2.7,1.2,1.6,2,3,2.3.8.1,1.6,0,2.3-.3,1.5-.5,2.8-1.4,4-2.4,3.6-3,6.2-6.7,8.6-10.7,3.2-5.4,5.3-11.2,6.6-17.3,1-4.4,2-8.7,3.2-13,.9-3.5,2-6.9,3.6-10.2.3-.6.6-1.2.9-1.7.1.1.3.3.3.5,1.3,2.7,2.3,5.5,3,8.5.3,1.4.5,2.7.8,4.1,0,0,0,.1,0,.2.5,3.1.7,6.3.6,9.5,0,3.3-.5,6.5-1.1,9.7,0,0,0,.1,0,.2,0,.2-.1.4-.3.6-.3.8-1.7,5.6-2.3,7.1.2.3,0,.6,0,.9h0Z"/>
      <path class="cls-12" d="M636.9,769c.5-1.5.9-3,1.4-4.6.3-.8.5-1.7.8-2.4h0c0,0,0,0,0,0-.5,2.4-1.2,4.7-2.1,6.9,0,0-.1,0-.2,0h0Z"/>
      <path class="cls-16" d="M636.9,769c0,0,.1,0,.2,0-.1.3-.3.7-.5,1,.1-.3.2-.6.3-.9h0Z"/>
      <path class="cls-21" d="M639.2,762h-.1c0-.3.1-.5.3-.7,0,.2,0,.5-.1.7h0Z"/>
      <path class="cls-13" d="M640,741.9c0,0,0-.1,0-.2,0,0,0,0,0,.1h0c0,0,0,0,0,0Z"/>
      <path class="cls-21" d="M582.1,744.3c0,0,0,0-.1.1v-.2c0,0,.1,0,.1,0h0Z"/>
      <path class="cls-4" d="M501.3,755c-1.1.3-1.9.9-2.7,1.6-3.7,2.8-6.6,6.4-9.2,10.2-.1.2-.3.4-.5.5,0,0-.1,0-.2,0,0-1.3,0-2.7,0-4,.1-.2.3-.3.5-.5,2.4-2.8,4.8-5.7,7.9-7.8,0,0,.1-.1.2-.3,1.3,0,2.6,0,4,0,0,0,0,.1,0,.1,0,0,0,0,0,.1h0Z"/>
      <path class="cls-4" d="M495.2,754.9c-.7.5-1.5.9-2.1,1.3-1.5,1.1-2.8,2.3-4.3,3.3,0-.1-.1-.2-.1-.3,0-1.4,0-2.8,0-4.2,0,0,0-.1,0-.3.2,0,.3,0,.5,0h5.2c.3,0,.5,0,.7.1h0Z"/>
      <path class="cls-14" d="M501.3,755h0c.1-.1.3-.2.4-.2h.7c0,0,0,.1,0,.1-.4,0-.8,0-1.1,0h0Z"/>
      <path class="cls-13" d="M488.7,767.3c0,0,.1,0,.2,0,0,.1-.1.3-.1.5,0-.2,0-.4,0-.5h0Z"/>
      <path class="cls-23" d="M501.7,754.8c-.1,0-.3,0-.4,0,0,0,0,0,0-.1.2,0,.3,0,.5,0h0Z"/>
      <path class="cls-19" d="M497.1,754.9c0,0,0-.1-.1-.2h.3c0,0,0,.1-.1.2h0Z"/>
      <path class="cls-23" d="M502.4,755c0,0,0-.1,0-.1,0,0,0,0,.1,0,0,0,0,.1,0,.2h-.1Z"/>
      <path class="cls-4" d="M985.6,730.1c.3.8.6,1.6.9,2.4.5,1.4,1,2.8,1.5,4.2,0,.2.1.5.1.7-.7.9-1.5,1.7-2.2,2.6-2.3,2.9-4.3,6-5.8,9.4-.7,1.7-1.4,3.4-1.6,5.4,0,.2,0,.5,0,.7,0,.4,0,.7.1,1.1.2,1,.7,1.9,1.5,2.3,1.9.9,3.8,1.1,5.6-.2.9-.6,1.7-1.4,2.2-2.3,1.7-2.6,2.6-5.6,3.7-8.5,0,.1.2.2.2.3.5,1.4.9,2.8,1.4,4.2h0c-1.8,2.6-3.6,5.2-5.4,7.7,0,0,0,.1,0,.1-.2,0-.4,0-.7,0h-12.8c-.2,0-.3,0-.5,0-.1-.1-.3-.3-.4-.3-.9-.2-1.9-.2-2.6.3h-4.2c1.7-4.6,3.2-9.2,4.8-13.8,0,0,.1,0,.1,0,.2.2.4.3.6.5,1.5,1.1,2.8,1.1,4-.3.6-.7,1.1-1.5,1.6-2.3.9-1.8,1.8-3.6,2.6-5.4,1.4-2.8,2.7-5.7,4.6-8.3.4,0,.6-.3.7-.5h0Z"/>
      <path class="cls-8" d="M970.8,760c.9-.5,1.7-.5,2.6-.3.1,0,.3.2.4.3-1,0-2,0-3,0Z"/>
      <path class="cls-6" d="M971.6,746.1c0,.1,0,.2,0,.3,0,0-.1,0-.1,0,0,0,0-.1,0-.2h0Z"/>
      <path class="cls-1" d="M430.4,754.3h-.1c0,.1,0,0,0,0,0,0,0,0,.1,0h0Z"/>
      <path class="cls-8" d="M886,764.6c.1-.1.3-.3.5-.5,2-2.4,4-4.7,5.9-7.1v.3c-2,2.9-4.1,5.7-6.4,8.4h0c0,0,0,0,0,0,.1-.3.1-.7.1-1.1h0Z"/>
      <path class="cls-16" d="M885.9,765.9h0s0,0-.1.1h0q0-.1,0-.1Z"/>
      <path class="cls-7" d="M885.9,721.5c0,0,0,0,0,.1,0,0,0,0,0-.1h.1,0Z"/>
      <path class="cls-22" d="M885.9,721.5h-.1c0,0,.1-.2.1-.3,0,0,0,.2,0,.3h0Z"/>
      <path class="cls-14" d="M892.3,757.4v-.3c0,0,.1-.1.2-.3h.1c0,.3-.2.4-.3.5h0Z"/>
      <path class="cls-11" d="M1067.2,715.9h.5c-.2,0-.4,0-.7.1,0,0,.1,0,.2-.1h0Z"/>
      <path class="cls-14" d="M978.6,754.7c0,.2,0,.5,0,.7,0-.2,0-.5,0-.7Z"/>
    </g>
  </g>
</svg>