<?xml version="1.0" encoding="UTF-8"?>
<svg id="Layer_1" data-name="Layer 1" xmlns="http://www.w3.org/2000/svg" viewBox="0 0 1500 360">
  <defs>
    <style>
      .cls-1 {
        stroke: #000;
        stroke-miterlimit: 10;
        stroke-width: .5px;
      }

      .cls-2 {
        fill: #748a38;
      }

      .cls-2, .cls-3 {
        stroke-width: 0px;
      }

      .cls-3 {
        fill: #f5f5f5;
      }
    </style>
  </defs>
  <g id="Layer_2" data-name="Layer 2">
    <rect class="cls-3" width="1500" height="360"/>
  </g>
  <path class="cls-2" d="M230.89,198.06v54.7c-4.6-.8-9-2.1-13.2-4.1-5.7-2.6-10.6-6.2-14.3-11.3-3.6-5-5.3-10.7-4.9-16.9.2-3,.8-5.9,1.9-8.7,2.5-5.9,6.9-9.7,13-11.6,2.9-.9,5.8-1.3,8.8-1.5,2.9,0,5.8-.4,8.7-.6h0Z"/>
  <path class="cls-2" d="M828.49,125.06c.3,0,.6-.1.8-.1,3.7.6,7.5,1.3,11,2.9,7,3.2,12.3,8.2,15.8,15,1.7,3.3,3,6.7,4,10.2,0,.2,0,.3.2.5h23.9c.5,0,1-.2,1.5-.2h.4c-.3,2.7-.8,5.4-1.6,7.9-1.1,3.3-2.7,6.2-5.1,8.7-3.3,3.3-7.3,5.4-12,5.7-2.3,0-4.5-.5-6.6-1.4-3.8-1.7-6.6-4.4-9-7.7-1.9-2.6-3.3-5.4-4.5-8.4-1.6-4.3-3.2-8.6-4.8-12.9-2.7-7.2-6.5-13.5-12.1-18.8-.7-.5-1.3-1-1.9-1.5h0v.1Z"/>
  <path class="cls-2" d="M935.49,136.36h0c.8-2.3,1.7-4.6,2.4-6.9.9-2.9,1.3-5.9,1-9,0-1.2-.4-2.4-.5-3.7,0-.9-.2-1.7-.2-2.6,0-2.2,1.6-3.8,4-4,1.2-.1,2.4,0,3.5.3,5,1.4,8.8,4.3,11.4,8.9,1.5,2.6,1.7,5.5,1.5,8.4-.9,12.6-5.6,23.9-12.8,34.3-3.1,4.5-6.5,8.9-9.8,13.3,0,.2-.3.3-.4.4,0-.4-.2-.8-.2-1.2v-38.2h.1Z"/>
  <path class="cls-2" d="M683.69,125.76c1,.2,2.2-.7,3.3-.4,7.9,2,15,6.4,19.7,13.1,2.2,3,4.2,6.6,5.4,10.1.5,1.5,1,4.7,1.3,4.7h23.3s.9.4,1.8.5c-.2,1.6-.6,3.1-.9,4.4-1,3.9-2.9,7.4-5.8,10.2-3.3,3.3-7.2,5.3-12,5.7-1.6,0-3.2-.3-4.7-.8-4.1-1.3-7.3-3.9-10-7.2-2.6-3.2-4.4-6.8-5.8-10.7-1.5-3.9-2.9-7.9-4.4-11.9-2.1-5.7-5.1-11-9.1-15.6-.6-.7-1.4-1.5-2.1-2.2h0v.1Z"/>
  <path class="cls-2" d="M1046.69,252.96c1-2.9,2-5.8,3.1-8.6,2.2-6,4.3-12.1,6.5-18.1,1.3-3.8,2.7-7.6,4.1-11.5h4.2c-.3,2.8,0,5.6.5,8.3.7,3.2,2.6,5,5.8,5.4,1.1.2,2.3.3,3.4.5.7.1,1.4.3,2.1.5,1.3.4,2.2,1.3,2.7,2.5.8,2,.9,4.1,0,6.1-.7,1.7-1.9,3-3,4.4,0,.1,0,.2-.2.4h.2c1.6-.2,3.2-.5,4.8-.5,2.9,0,5.5.9,7.7,2.8.5.4.9.9,1.3,1.4,1.6,2.3.8,5-1.8,6-.8.3-1.6.4-2.5.5h-34.8c-1.3,0-2.7,0-4.1-.2h0v.1Z"/>
  <path class="cls-2" d="M343.09,252.66c-.1-.2-.1-.4-.1-.7v-34.6c0-1,.1-2.1.1-3.1.2,0,.3-.2.5-.3,5.6-4.9,11.2-9.9,16.7-14.9,1.1-1,2.1-2.3,3-3.5,1.1-1.5,1.8-3.2,1.9-5.1.1-1.2-.2-2.3-1.3-3,0,0,0-.2-.1-.3h6c1,3.3.3,6.5-.8,9.6-1.2,3.3-2.9,6.3-5,9.1s-4.3,5.5-6.7,7.9c-.2.2-.4.4-.6.6.1,0,.2.2.3.2,3.8,1.5,5.8,4.4,6.9,8.2,1,3.8.6,7.4-.9,11-1.9,4.3-4.8,7.8-8.2,10.9-3.3,3-6.9,5.6-11,7.6-.3.2-.5.3-.7.4h0Z"/>
  <path class="cls-2" d="M935.49,217.16c0-.3-.2-.6-.2-.9v-12.3l.2-.2c3.4-4.1,6.6-8.3,9.6-12.7.2-.2.3-.4.5-.6l-.2-.2s-.2.2-.3.4c-3,3.6-6,7.1-8.9,10.7-.2.2-.4.5-.7.7,0-.3-.2-.7-.2-1,0-1.2,0-2.4.2-3.6,1.3-1.7,2.7-3.3,4-5,3.8-5.1,7.5-10.2,11.5-15.2,2.9-3.7,6.3-7.1,10.3-9.8,2.3-1.6,4.8-2.9,7.5-3.7,1.7-.5,3.3-.8,5.1-.4,3,.7,4.5,3.1,3.8,6.1-.5,1.9-1.5,3.5-2.9,4.9-3.9,3.9-7.9,7.6-11.9,11.5-4.2,4.2-8.5,8.3-12.7,12.5-3.5,3.6-6.8,7.4-9.8,11.5-1.6,2.2-3,4.6-4.5,6.9-.2,0-.3.2-.5.4h.1ZM945.69,190.06h0Z"/>
  <path class="cls-2" d="M256.49,253.26v-35.6s0-.2.2-.2c.9-.6,1.8-1.2,2.7-1.8,2.3-1.5,4.7-2.4,7.5-2.1,2.7.3,5,1.5,7,3.3,3.3,3.1,5.2,7,5.9,11.4,1,6-.6,11.3-4.9,15.8-3.9,4.1-8.7,6.8-14.2,8.3-1.5.3-2.9.5-4.3.9h.1Z"/>
  <path class="cls-2" d="M358.99,164.96h-4.7c.4-3.4.2-6.9-.7-10.2-.6-2-1.3-4-2.1-6-1.4-3.2-3.3-6.1-5.7-8.6-.7-.8-1.6-1.2-2.7-.8,0-.4-.1-.9-.1-1.3v-30.9c5.8.2,11,1.9,15.3,5.9,3,2.8,4.7,6.2,5.1,10.3.2,2-.3,4-.8,6-.8,2.8-2.2,5.3-3.9,7.7-.6.9-1.2,1.9-1.8,2.8-1.8,3-2.5,6.2-1.8,9.5.9,4.4,2,8.8,3,13.2.2.7.6,1.5.9,2.4h0Z"/>
  <path class="cls-2" d="M1110.89,214.86h3.8c-.3,1.1-.8,2.1-1,3.2-.4,1.7.4,2.8,2.2,3h1.5c1.1,0,2.2-.2,3.3-.3.3.8.7,1.6,1,2.4,2.3,6.5,4.7,13,7,19.5.2.5.3,1.1.5,1.6-1.2,1.1-2.4,2.4-3.7,3.4-3.2,2.5-6.8,4.3-10.7,5.4-1.5.4-2.9.5-4.4.2-1.9-.4-3.2-1.5-3.9-3.3-.6-1.6-.8-3.2-.9-4.9-.2-3.6,0-7.2.6-10.7.8-6,2.3-11.9,4-17.7.4-.7.6-1.3.7-1.9h0v.1Z"/>
  <path class="cls-2" d="M256.69,210.16v-16.1c2.9-.7,5.8-1.2,8.6-2,2.1-.6,4.2-1.2,6.2-2.1,1.2-.5,2.3-1.3,3.3-2.1,1-.8.9-1.8,0-2.6-.4-.3-1-.6-1.6-.7-1.1-.2-2.1-.3-3.2-.3-4.4,0-8.8.9-13.1,2h-.2v-6.7c3.9,0,7.7-.6,11.5-1.4,3.1-.6,6.2-1.2,9.3-1.7,2.8-.4,5.6,0,8.1,1.6,1.9,1.2,3.1,2.8,3.5,5.1.3,1.7-.2,3.3-1,4.8-1,1.9-2.6,3.3-4.3,4.6-1.7,1.2-3.6,2.3-5.3,3.4-5.2,3.3-10.4,6.6-15.6,9.9-2.1,1.6-4.1,3-6.1,4.4h-.1v-.1Z"/>
  <path class="cls-2" d="M990.89,230.96c-.4,0-.8.1-1.2.1h-36.6c-.5,0-1-.1-1.4-.1.5-.3.9-.6,1.3-1,4.5-3.2,9-6.3,13.5-9.5,4.2-2.9,8.4-5.9,13-8.2,2.4-1.2,4.8-2.2,7.5-2.5.8,0,1.8,0,2.6.2,1.2.3,2.1,1.1,2.5,2.4.4,1.2.6,2.4.4,3.7-.3,2.8-.7,5.5-1.2,8.3-.3,2.2-.5,4.4-.4,6.6h0Z"/>
  <path class="cls-2" d="M256.49,164.26v-33.7c6.7.7,11.9,4.1,15.9,9.4,2.3,3,2.8,6.3,2.4,10,0,.9-.3,1.8-.5,2.7-.7,2.7-2.1,4.8-4.4,6.3-1.3.9-2.7,1.8-4.1,2.4-3,1.2-6.1,2.2-9.1,3.2l-.3-.3h.1Z"/>
  <path class="cls-2" d="M409.49,117.26c.1.4.1.9.1,1.3v45.4c0,.3,0,.6-.1.9-.2,0-.5.2-.7.2h-12.2c1-1,2.1-1.9,3-3,1.7-2.1,2.5-4.7,2.5-7.4s-.1-1.8-.2-2.7h.1v-.2c-.3-2.7-1.1-5.3-1.7-7.9-.8-3-1.5-6.1-2.1-9.2-.7-4,.2-7.8,2.9-11,2.4-2.7,5.2-4.8,8.4-6.2h0v-.2h0Z"/>
  <path class="cls-2" d="M230.89,164.86v28.1c-2.9.6-5.9,1.2-8.8,1.8-1.7.3-3.4.4-5.1-.3-2.8-1.1-4.1-3.2-3.8-6.2s1.6-5.7,3.2-8.2c2.8-4.6,6.4-8.4,10.4-11.9,1.3-1.1,2.7-2.2,4.1-3.3h0Z"/>
  <path class="cls-2" d="M409.49,220.76c.1.5.1.9.1,1.4v24.6c0,.4-.1.7-.2,1-3.5-1.2-6.8-2.9-9.5-5.4-2.9-2.6-5.1-5.6-6.2-9.3-.5-1.8-.8-3.6-.5-5.4.6-3.2,2.4-5.3,5.4-6.4,2.5-.9,5-.9,7.6-.7,1.2,0,2.2,0,3.3.2h0Z"/>
  <path class="cls-2" d="M658.29,231.76c-.6-.3-1.2-.5-1.8-.8-3.7-1.9-7-4.4-9.9-7.3-2.8-2.8-5.2-6-7-9.5-1.4-2.7-2.6-5.6-3.8-8.3-.1-.2-.1-.5-.1-.7,2.4-.2,4.8-.6,7.2-.7,3.4,0,5.9,1.4,7.2,4.6.8,1.9,1.3,3.9,1.9,5.9,1.4,4.7,2.7,9.3,4.8,13.7.4,1.1,1,2.1,1.5,3.1h0Z"/>
  <path class="cls-2" d="M804.09,230.86c-.2-.1-.5-.1-.7-.2-6.9-4-12.4-9.5-16.1-16.6-1.1-2.1-2.1-4.3-3.1-6.5,0-.2,0-.5-.2-.7,2-.2,4-.4,6.1-.5.8,0,1.6,0,2.4.2,1.8.4,3.2,1.3,4.1,2.9.7,1.3,1.3,2.7,1.8,4,1.4,4.3,2.7,8.8,4.1,13.1.3,1.5,1,2.9,1.6,4.3h0Z"/>
  <path class="cls-2" d="M1199.59,231.66v-38.5c0-.4,0-.8.2-1.3,1.3,1.9,3.1,3.1,5.3,3.5,1.9.3,3.7.2,5.6-.3,5.1-1.4,9.4-4.2,13-7.9,0,0,.2-.3.3-.5,0,0,.2,0,.2-.2h9.4c-.5,1.2-1,2.5-1.5,3.8-1.1,2.6-2.3,5.2-3.4,7.8-.3.7-.8,1.4-.4,2.2.9.6,1.2.7,1.9,0,.3-.2.6-.5.9-.8,2.9-2.9,5.1-6.2,6.9-9.8.6-1.1,1.1-2.2,1.6-3.3,4.4,0,8.7,0,13,.7.2,0,.3,0,.4.2-1.9,3.9-3.4,8-4.8,12.1-2,5.8-4.5,11.3-7.8,16.5-1.8,2.9-3.7,5.8-6.1,8.2-2.1,2-4.1,4-6.2,6-.5.5-1,1.1-1.5,1.7-.3,0-.6.1-.9.1h-25.2c-.2,0-.5,0-.7-.1,0,0,0-.2-.2-.3h0v.2h0Z"/>
  <path class="cls-2" d="M1221.39,168.26c1.2-.9,2.3-2,3.5-2.8,2.4-1.6,4.9-3,7.3-4.6,2.6-1.6,5.2-3.2,7.7-4.9s4.6-3.8,6-6.5c2.6-5.2,1.8-10.3-1.8-14.7-1.6-2-3.8-3.3-6.2-4.2-2-.8-4-1.3-6-2v-.3c.5,0,.9-.1,1.4-.1,3,0,5.9-.1,8.9,0,3.4.1,6.8.5,10,1.6,5.9,2.1,9.2,6.3,10.3,12.4.5,2.7.5,5.3.4,8,0,.4,0,.8-.2,1.2-.3.2-.7.4-.9.7-.8.7-1.5,1.4-2.2,2.1-3.2,3-6.5,6-9.6,9.1-1.6,1.5-3,3.2-4.5,4.9-.9,0-1.9.3-2.8.3h-20.4c-.4,0-.6-.2-.9-.2h0Z"/>
  <path class="cls-2" d="M1219.19,128.56c-3.7.8-7,2.3-9.8,4.9-1.7,1.7-3,3.6-3.7,5.9-.4,1.3-.4,2.5.2,3.7s1.3,2.4,2,3.7c.6,1,1,2.1.9,3.3,0,1.9-.4,3.7-1.2,5.4-.8,1.6-1.6,3.2-2.4,4.8-1.3,2.7-2.5,5.3-3.8,8h-1.7v-40c.3,0,.6-.1.8-.1h18c.3,0,.6.1.9.1h0c0,.2,0,.3-.2.3h0Z"/>
  <path class="cls-2" d="M1250.19,166.86c1.4-2.1,3.1-3.9,4.9-5.6,1.7-1.5,3.6-2.9,5.3-4.4.3-.2.7-.4,1-.6-.2.6-.4,1.2-.7,1.8-1.7,3.4-4.4,5.9-7.8,7.6-.8.5-1.8.8-2.7,1.2h0Z"/>
  <path class="cls-2" d="M559.59,210.06c-1.8,3.6-3.6,7.2-6.2,10.3-5.2,6.6-11.8,11.1-19.9,13.4-5.5,1.5-11.1,1.9-16.9,1.4-5.3-.4-10.4-1.7-15.1-4.1l-1.2-.6v-.8c-.3-1.1-.6-2.2-.9-3.3-1.3-5.5-1.3-11-.1-16.6.9-4.3,2.4-8.5,4.2-12.5,2.4-5.3,5.4-10.4,8.4-15.4,3-5.2,6.1-10.3,8.6-15.7,1.6-3.5,3.1-7,4-10.7.4-1.8.4-3.6-.3-5.4-.8-2-3.2-2.9-4.8-2.5-1.2.3-2.4.7-3.4,1.4-1.7,1.2-3.4,2.6-4.6,4.3-.9,1.2-1.9,2.4-2.7,3.6-2.2,3.1-4.4,6.3-6.6,9.4-1.9,2.6-4.1,4.8-6.7,6.6-3.1,2.1-6.5,3.1-10.2,2.5-3.1-.5-5.8-1.8-8-4l-.2-.2c1.2-10.3,3.9-20.1,9.8-28.9,5.2-7.6,12.1-12.9,21-15.6,2.5-.8,5.1-1.1,7.7-1.6h.8c-.1.7-.2,1.3-.3,2-.4,2.7-1.7,5.1-3.8,6.8-1,.8-2,1.5-3,2.2-2.8,1.7-5.9,2.7-8.9,3.8s-6,2.1-8.7,3.7c-1.6,1-3.2,2-4.4,3.5-2.1,2.5-1.7,5.3.9,7.3,1.1.8,2.2,1.4,3.5,1.7,3.6,1,7,.5,10.4-1,5.1-2.1,9.3-5.5,12.9-9.7,3.5-4.1,6.4-8.6,9.1-13.1,1.4-2.2,2.7-4.5,4-6.8,3.3.4,6.4,1.2,9.4,2.4,6.7,2.8,12.2,7.2,16.6,13.1-1,1-1.9,2.1-2.9,3-3.5,3.3-6.9,6.6-10.5,9.8-5.1,4.7-10.5,9.3-15.2,14.4-2.2,2.4-4.3,4.8-6.3,7.4-5.6,7.4-8.9,15.8-10.4,24.9-.5,2.7-.8,5.4-1,8.2-.4,4.5-.7,9-.2,13.5.2,2.2.6,4.3,1.7,6.3,1,1.8,2.4,3.1,4.5,3.5,1.2.2,2.4,0,3.5-.4,2.3-.8,4.3-2.1,6.1-3.7,5.4-4.6,9.4-10.2,13-16.2,4.8-8.2,8-16.9,10-26.1,1.5-6.6,3.1-13.2,4.8-19.7,1.4-5.3,3.1-10.5,5.4-15.5.4-.9.9-1.8,1.4-2.6.2.2.4.4.5.7,1.9,4.1,3.5,8.3,4.5,12.8.5,2.1.8,4.1,1.2,6.2,0,0,0,.2.1.3.8,4.7,1,9.5.9,14.3-.1,5-.7,9.8-1.6,14.7,0,0-.1.2-.1.3s1.1,3.8.2,6.9-3.9,5.8-4,6.1h0Z"/>
  <path class="cls-2" d="M361.99,187.46c-1.6.4-2.9,1.4-4.1,2.4-5.6,4.3-10,9.7-13.9,15.5-.2.3-.4.6-.7.8h-.3c0-2,.1-4.1.1-6.1.2-.3.5-.5.7-.8,3.7-4.2,7.2-8.6,11.9-11.8.1,0,.2-.2.3-.4h6s0,.2.1.2c0,0,0,.1-.1.2h0Z"/>
  <path class="cls-2" d="M352.69,187.26c-1.1.7-2.2,1.3-3.2,2-2.2,1.6-4.3,3.4-6.5,5-.1-.2-.2-.3-.2-.4,0-2.1,0-4.2.1-6.3,0,0,.1-.2.1-.4h8.6c.4,0,.8,0,1.1.2h0v-.1Z"/>
  <path class="cls-2" d="M1096.09,149.76c.4,1.2.9,2.4,1.3,3.6.8,2.1,1.5,4.3,2.3,6.4,0,.3.2.7.2,1-1.1,1.3-2.2,2.6-3.3,3.9-3.4,4.4-6.5,9-8.8,14.2-1.1,2.6-2.1,5.2-2.4,8.1v1c0,.6,0,1.1.2,1.7.3,1.5,1,2.8,2.3,3.4,2.9,1.4,5.7,1.6,8.5-.3,1.4-.9,2.5-2.1,3.3-3.5,2.5-4,4.4-9.2,6-13.6,0,.2.4.6.4.7.7,2.1,1.3,4.2,2,6.3l-.5.7c-2.7,3.8-5.5,7.7-8.2,11.5v.2h-20.3c-.3,0-11.7-.2-11.7-.2,2.5-7,4.9-13.9,7.3-20.8h.2c.3.3.6.5.9.8,2.3,1.7,4.2,1.6,6.1-.5.9-1,1.7-2.2,2.4-3.4,1.4-2.7,2.7-5.4,4-8.1,2.1-4.3,7.8-12.9,8-13.2h-.2v.1Z"/>
  <path class="cls-1" d="M1174.09,253.06V107.16c.4,0,.7-.1,1.1-.1h71.1c7.1,0,14,1.2,20.7,3.6,5,1.9,9.5,4.6,13.2,8.5,3.9,4.1,6.3,9,7.5,14.5,1,4.7,1.2,9.4.7,14.2-.7,6.2-2.7,11.8-6.8,16.6-3.2,3.7-6.9,6.8-11.5,8.9-.8.4-1.6.8-2.4,1.2v.3c.6.2,1.1.3,1.7.5,4.9,1.2,9.4,3.2,13.3,6.4,4.3,3.5,7.2,7.9,9.3,13,1.6,3.9,2.5,8,2.9,12.2.3,2.9.4,5.9.2,8.8-.7,9.1-3.7,17.2-10.3,23.7-2.1,2.1-4.4,3.8-6.9,5.3-6.9,4.1-14.4,6.3-22.3,7.5-4.6.7-9.2,1-13.9,1h-66.1l-1.5-.2h0ZM1261.49,156.26c0-.3.3-.5.4-.8.3-1.4.6-2.8.8-4.1,0-.4.2-.8.2-1.2,0-2.7,0-5.3-.4-8-1.1-6.1-4.4-10.3-10.3-12.4-3.2-1.1-6.6-1.6-10-1.6-2.9-.1-5.9,0-8.9,0s-.9.1-1.4.1-.6.1-.9.1c-3.6-.3-7.2-.3-10.8-.1-.2,0-.5,0-.8-.1-.3,0-.6-.1-.9-.1h-18c-.3,0-.5.1-.8.1v40h42.8c.9,0,1.9-.2,2.8-.3,1.7-.2,3.3-.4,4.8-1.2.9-.4,1.9-.7,2.8-1.2,3.4-1.7,6.1-4.2,7.8-7.6.4-.5.6-1.1.8-1.7h0v.1ZM1223.99,186.56h-24.2v5.4c0,.4-.2.8-.2,1.3v38.5c0,.1,0,.2.2.2s.5.1.7.1h25.2c.3,0,.6,0,.9-.1.2,0,.3.1.5.1,6.5,0,13,0,19.5-.1,3.6-.1,7.2-.6,10.5-2.1,5.4-2.4,9.3-6.3,11.1-12.1,1.4-4.8,1.7-9.6.8-14.4-.9-4.9-3.1-9-7.3-11.9-1.3-.9-2.6-1.7-4-2.4-1.5-.8-3.1-1.3-4.8-1.5,0,0-.3-.2-.4-.2-4.3-.8-8.7-.8-13-.7h-15.5v-.1Z"/>
  <path class="cls-1" d="M591.19,178.56c.1,11.2-1.6,22.1-5.4,32.6-2.8,7.8-6.8,15-12.1,21.4-4.1,5-8.9,9.2-14.2,12.8-7.9,5.3-16.6,8.5-26,10.1-6.7,1.1-13.5,1.2-20.2.6-9.4-.9-18.2-3.6-26.5-8.2-6.6-3.6-12.3-8.3-17.2-14-6.4-7.4-11.1-15.8-14.1-25.2-1.7-5.5-3-11.1-3.8-16.8-.9-6.8-1-13.6-.4-20.4.5-6,1.6-11.9,3.4-17.7,1.9-6.1,4.3-12.1,7.7-17.6,4.1-6.6,8.9-12.6,14.9-17.5,5.9-4.8,12.4-8.6,19.6-11.1,5.3-1.8,10.8-3.1,16.5-3.6,5.5-.5,11-.5,16.5,0,6.1.7,12.1,2.2,17.8,4.5,6.8,2.8,13,6.6,18.5,11.4,5.3,4.6,9.6,10.1,13.3,16.1,3.3,5.4,5.8,11.3,7.6,17.3,1.7,5.5,2.8,11,3.4,16.7.3,3,.5,5.7.7,8.5h0v.1ZM560.29,208.46c1.4-3.4,2.5-6.9,3.2-10.5.1-.3.1-.7.2-1,0,0,.1-.2.1-.3.9-4.9,1.6-9.8,1.6-14.7.1-4.8-.2-9.6-.9-14.3h0c0-.2-.1-.2-.1-.3-.4-2.1-.7-4.1-1.2-6.2-1-4.4-2.7-8.6-4.5-12.8-.1-.2-.3-.5-.5-.7-1.1-2.4-2.4-4.7-4.1-6.8-4.3-5.9-9.8-10.2-16.6-13.1-3-1.3-6.2-2.1-9.4-2.4-.1,0-.3-.1-.5-.1-3.8-.4-7.5-.6-11.3-.2-.3,0-.6-.1-.8,0-2.6.5-5.2.9-7.7,1.6-8.8,2.7-15.8,7.9-21,15.6-5.9,8.7-8.6,18.5-9.8,28.9v.3c-.1.4-.1.9-.2,1.3-.7,9.2-.1,18.4,2.1,27.4,1.9,7.3,4.8,14.2,9.5,20.2,3.3,4.2,7.1,7.6,11.8,10.1l1.2.6c4.8,2.4,9.8,3.7,15.1,4.1,5.7.5,11.3.1,16.9-1.4,8.1-2.2,14.7-6.8,19.9-13.4,2.5-3.2,4.4-6.7,6.2-10.3.3-.5.6-1,.8-1.6h0Z"/>
  <path class="cls-1" d="M434.89,253.06c-.2,0-.5.1-.7.1h-23.6c-.3,0-.6,0-1.1-.1v-5.2c.1-.4.2-.7.2-1v-24.6c0-.5-.1-.9-.1-1.4v-32.6c0-.3,0-.7-.1-1-.3,0-.6-.2-.9-.2h-53c-.9,0-1.8,0-2.8.2-.4,0-.7-.2-1-.2h-8.6c-.1.2-.1.3-.1.4,0,2.1-.1,4.2-.1,6.3s.1.3.2.4v5.7c0,2-.1,4.1-.1,6.1s.1.5.1.8c0,2.5,0,5,.1,7.5,0,1-.1,2.1-.1,3.1v35.3c-.1.4-.3.4-.6.4h-25V107.16c.2,0,.4-.1.6-.1h24.1c.3,0,.6.1.8.1v30.9c0,.4.1.9.1,1.3,0,.6-.1,1.1-.1,1.7v23.5s.1.2.1.4h65.9c.2,0,.4,0,.7-.2,0-.3.1-.6.1-.9v-45.4c0-.4-.1-.9-.1-1.3v-10.1h25.6v145.7c-.3,0-.4.2-.5.3h0Z"/>
  <path class="cls-1" d="M1110.89,214.86h-50.4c-1.4,3.9-2.8,7.7-4.1,11.5-2.2,6-4.3,12.1-6.5,18.1-1,2.9-2.1,5.8-3.1,8.6-.3,0-.6.1-.8.1h-25.6c18.7-48.7,37.4-97.3,56.1-145.9h27.3c18.8,48.6,37.5,97.2,56.3,145.9h-27.4c-.9-2.4-1.7-4.8-2.6-7.2-.2-.5-.4-1-.6-1.4-.2-.5-.3-1.1-.5-1.6-2.3-6.5-4.7-13-7-19.6-.3-.8-.7-1.6-1-2.4-.6-1.8-1.2-3.6-1.8-5.4,0-.2-.2-.4-.3-.7-1.3,0-2.6,0-3.9.2h-4.1v-.2ZM1074.89,173.96v.3c-2.4,6.9-4.9,13.8-7.3,20.8h44.7c-.2-.6-.4-1.1-.6-1.6-1.2-3.4-2.4-6.8-3.6-10.2-.7-2.1-1.4-4.3-2.1-6.4,0-.2-.2-.3-.3-.4,0-.4-.2-.8-.3-1.1-1.3-3.6-2.5-7.2-3.8-10.8-.4-1.2-.9-2.5-1.3-3.7,0-.3,0-.7-.2-1-.8-2.1-1.5-4.3-2.3-6.4-.4-1.2-.9-2.4-1.3-3.6-.5-1.4-1-2.8-1.4-4.2-1.4-4-2.7-8-4.1-12-.2-.5-.4-.9-.7-1.5-.2.3-.3.5-.4.6-5.2,13.7-10.1,27.4-14.9,41.2h-.1Z"/>
  <path class="cls-1" d="M658.29,231.76c1.3.5,2.5,1.2,3.8,1.6,3.8,1.3,7.8,1.8,11.8,1.9,4.2.1,8.4,0,12.5-1.2,10.3-2.9,17.7-9.4,22.2-19.1,2.4-5.2,3.9-10.7,4.6-16.4,0-.3,0-.7.2-1.1h21.8c1,0,2.1,0,3.2.2,0,1.2,0,2.5-.3,3.7-.8,6.5-2.3,12.8-4.8,18.9-1.6,3.8-3.6,7.4-6,10.9-2.9,4.3-6.3,8.1-10.2,11.3-4.6,3.8-9.7,6.8-15.2,9.1-4.9,2.1-10,3.3-15.2,4.1-6.1.9-12.3,1-18.4.4-9-.8-17.6-3.4-25.6-7.7-6.9-3.7-12.9-8.5-18-14.5-6.4-7.4-11.1-15.8-14.1-25.2-1.7-5.5-3-11.1-3.8-16.8-.9-7.5-1-15-.1-22.5.7-6,1.9-11.9,3.9-17.6,2.6-7.8,6.2-15,11.1-21.6,7.6-10.1,17.3-17.5,29.1-22.1,4.8-1.9,9.9-3.1,15.1-3.8,5.5-.8,11.1-.9,16.6-.4,10.4.8,20.4,3.5,29.5,8.7,9.7,5.6,16.9,13.5,21.7,23.6,1.9,4.1,3.1,8.4,3.9,12.8.2,1.2.5,2.4.6,3.7v1h-25.5c-.5-1.6-1-3.2-1.6-4.7-1.3-3.5-2.8-6.9-4.9-9.9-4.7-6.7-11.1-11-19-13-1-.3-2.1-.4-3.2-.6-.8-.1-1.7-.3-2.5-.4-7-.7-13.9-.4-20.6,2.1-7.6,2.8-13.7,7.5-18.4,14.2-4.2,6-7,12.7-8.7,19.8s-2.4,14.3-2.1,21.6c.2,7.3,1.3,14.4,3.6,21.4.1.3.3.7.4,1,0,.2,0,.5.1.7,1.3,2.8,2.5,5.6,3.8,8.3,1.8,3.5,4.2,6.7,7,9.5,2.9,2.9,6.2,5.3,9.9,7.3.4.6,1,.8,1.7,1h0v-.2h.1Z"/>
  <path class="cls-1" d="M804.09,230.86c.7.4,1.4.8,2.1,1.1,4.9,2.2,10,3.2,15.3,3.3,4.2.1,8.4,0,12.5-1.2,10.3-2.9,17.6-9.2,22.2-18.8,1.9-4,3.3-8.2,4.1-12.6.2-1.4.4-2.8.7-4.1,0-.3,0-.7.2-1.1h24.9c0,1.3,0,2.5-.3,3.7-.8,6.5-2.3,12.8-4.8,18.9-1.6,3.9-3.7,7.5-6,11-3,4.5-6.6,8.4-10.8,11.8-4.4,3.6-9.3,6.4-14.6,8.6-5.3,2.2-10.8,3.5-16.4,4.3-5.8.8-11.6.7-17.5.2-5.3-.5-10.4-1.6-15.4-3.4-9-3.2-17.2-7.9-24-14.7-7.4-7.3-12.9-15.8-16.6-25.4-2.4-6.3-4.1-12.9-5-19.6-.7-5.4-1-10.8-.8-16.2.4-9.4,2.1-18.6,5.3-27.6,2.8-7.7,6.8-14.8,11.9-21.1,3.5-4.4,7.5-8.1,12-11.4,4.5-3.2,9.2-6,14.4-8,5.2-2.1,10.6-3.4,16.2-4.2,5.5-.7,11.1-.9,16.6-.4,10.3.8,20.2,3.5,29.3,8.6,9,5.2,16,12.4,20.8,21.7,2.4,4.7,3.9,9.7,4.8,14.8,0,.8.3,1.6.5,2.3v2c-.5,0-1,.2-1.5.2h-23.9c0-.2,0-.3-.2-.5-1-3.5-2.3-7-4-10.2-3.5-6.8-8.8-11.9-15.8-15-3.5-1.6-7.2-2.3-11-2.9-.3,0-.5,0-.8.1-1.5-.1-3.1-.3-4.7-.3-3.7.1-7.3.2-10.9,1.1-8.8,2.2-16,6.8-21.6,14-5.6,7.3-8.8,15.6-10.5,24.6-1.1,5.8-1.6,11.8-1.4,17.7.2,8.2,1.4,16.2,4.3,23.9,0,.3.2.5.3.8,0,.2,0,.5.2.7,1,2.2,2,4.3,3.1,6.5,3.7,7.1,9.2,12.6,16.1,16.6,0,.2.3.2.6.3h.1v-.1Z"/>
  <path class="cls-1" d="M256.49,253.26c-8.2-.1-16.3-.1-24.5-.2-.4,0-.7-.2-1.1-.3v-123.7h-46.2v-22h118.3v21.7s0,.2-.2.2h-46.2v124.3h-.1Z"/>
  <path class="cls-1" d="M935.49,175.76v21.5c0,1.2,0,2.4-.2,3.6,0,.3,0,.7.2,1v1.8h0v12.5c0,.3,0,.6.2.9v13.7c.2,0,.4.1.6.1h14.8c.3,0,.5-.1.8-.1.5,0,1,.1,1.4.1h36.6c.4,0,.8,0,1.2-.1.4,0,.9.1,1.3.1h17.4c.3,1,.4,18.1,0,21.9h-99.9V107.16h25.6v29.2h0s-.2.3-.2.4v37.7c-.2.5,0,.9,0,1.3h.2Z"/>
</svg>